Coordinates
version=1
nRows=14
nColumns=24
inDegrees=yes

Units are S.I. units (second, meters, Newtons, ...)
Angles are in degrees.

endheader
time	pelvis_tilt	pelvis_list	pelvis_rotation	pelvis_tx	pelvis_ty	pelvis_tz	hip_flexion_r	hip_adduction_r	hip_rotation_r	knee_angle_r	ankle_angle_r	subtalar_angle_r	mtp_angle_r	hip_flexion_l	hip_adduction_l	hip_rotation_l	knee_angle_l	ankle_angle_l	subtalar_angle_l	mtp_angle_l	lumbar_extension	lumbar_bending	lumbar_rotation
      1.39466667	     -2.14662142	     -1.42956374	     -3.85490949	      0.93135369	      0.95894232	      0.30497346	    -21.53377873	      1.50274863	     -1.23945468	     -5.59195274	     16.10262068	      1.34563430	      4.32755347	     27.48969805	     -2.96656228	      0.17302881	      5.16323354	      2.92229108	      0.87289082	      2.29249817	    -10.65380200	      5.87589171	     11.18165687
      1.39883333	     -2.17608420	     -1.24553149	     -3.87133335	      0.93756045	      0.95814150	      0.30448842	    -21.67456358	      1.24124171	     -1.35211134	     -5.96789315	     15.92641286	      1.39277665	      4.69909058	     27.53172707	     -2.75254338	      0.53547284	      4.69034589	      2.49661830	      0.26636999	      2.43775324	    -10.56549880	      5.60501393	     11.15761702
      1.40300000	     -2.21402996	     -1.04266334	     -3.88225521	      0.94383001	      0.95737397	      0.30398849	    -21.81257475	      0.96375621	     -1.45955525	     -6.32755061	     15.73236634	      1.43203299	      5.09829375	     27.58855449	     -2.51196010	      0.85450176	      4.18099246	      1.97293649	     -0.38326674	      2.59716361	    -10.44253835	      5.31429461	     11.13295130
      1.40716667	     -2.26121825	     -0.81726640	     -3.89580755	      0.95014423	      0.95664238	      0.30348125	    -21.93245607	      0.66318972	     -1.56352944	     -6.70027697	     15.50934797	      1.44909727	      5.46706232	     27.65789664	     -2.24576795	      1.15694487	      3.64095504	      1.37928318	     -1.05467686	      2.73814691	    -10.30236852	      4.99993545	     11.10417060
      1.41133333	     -2.32410831	     -0.58135848	     -3.90087264	      0.95647636	      0.95593224	      0.30295146	    -22.01869378	      0.35590682	     -1.67694940	     -7.10441737	     15.25875724	      1.45877921	      5.85856085	     27.74520427	     -1.96191847	      1.46950679	      3.09042161	      0.69972155	     -1.77602121	      2.88036404	    -10.15232754	      4.67091143	     11.05987274
      1.41550000	     -2.28067606	     -0.29845409	     -3.88301364	      0.96286221	      0.95540028	      0.30238931	    -22.22550061	      0.00192721	     -1.85489471	     -7.48148939	     14.87198635	      1.34651015	     10.52489559	     27.71270785	     -1.61108333	      1.74288698	      2.54879729	     -0.07495844	     -2.45829463	      4.63019973	    -10.13745651	      4.29275319	     10.90004772
      1.41966667	     -2.46432517	     -0.06309146	     -3.91343149	      0.96922699	      0.95464181	      0.30185864	    -22.13336310	     -0.30576784	     -1.91562068	     -7.97440376	     14.56904334	      1.32603241	     10.62099354	     27.96530645	     -1.33535313	      1.98592790	      1.89246450	     -0.81690029	     -3.16276328	      4.61656260	     -9.82691264	      3.96468558	     10.97970972
      1.42383333	     -2.52991507	      0.22604767	     -3.91792448	      0.97565067	      0.95407651	      0.30127673	    -22.17565021	     -0.66866586	     -2.04723343	     -8.44827388	     14.22223443	      1.29285151	     10.77822439	     28.06369968	     -0.98303233	      2.27630724	      1.29617152	     -1.68313715	     -3.99305698	      4.61784475	     -9.66220303	      3.57427986	     10.93234833
      1.42800000	     -2.62582300	      0.52000624	     -3.91720166	      0.98207266	      0.95352354	      0.30068718	    -22.16497907	     -1.03078286	     -2.17014956	     -8.95825289	     13.84455834	      1.23171099	     10.99150328	     28.20763624	     -0.62164533	      2.54266644	      0.67227681	     -2.59087918	     -4.79145698	      4.63248430	     -9.46599251	      3.18359591	     10.87905460
      1.43216667	     -2.71153689	      0.83101429	     -3.91229427	      0.98853142	      0.95303858	      0.30007465	    -22.15110007	     -1.41000797	     -2.31167336	     -9.49146443	     13.42200337	      1.15262868	     11.26453770	     28.35586458	     -0.23595350	      2.79117327	      0.00357270	     -3.48744815	     -5.55632178	      4.64753113	     -9.27653122	      2.77266909	     10.82396978
      1.43633333	     -2.81089749	      1.15890785	     -3.90424633	      0.99499081	      0.95259374	      0.29944753	    -22.10536618	     -1.80418010	     -2.44266391	    -10.05189232	     12.96936355	      1.05550797	     11.59096449	     28.52226818	      0.17143244	      3.03538471	     -0.67826762	     -4.40625584	     -6.34076025	      4.66275573	     -9.07258316	      2.34219566	     10.76638871
      1.44050000	     -2.89021108	      1.51455495	     -3.88238603	      1.00150270	      0.95222014	      0.29878040	    -22.07163053	     -2.22827413	     -2.63521377	    -10.61729740	     12.37403913	      0.90335146	     16.97679754	     28.67462242	      0.61761119	      3.25205312	     -1.38041814	     -5.29167607	     -7.04651492	      5.08571903	     -8.89427398	      1.88535132	     10.67420202
      1.44466667	     -3.00108220	      1.86206854	     -3.86563660	      1.00801693	      0.95186761	      0.29812904	    -21.99138780	     -2.63593433	     -2.74583980	    -11.21306590	     11.83596483	      0.72744785	     17.03994080	     28.87608151	      1.05405457	      3.44514919	     -2.12132516	     -6.15842253	     -7.75450358	      5.06035677	     -8.67105172	      1.43040622	     10.63973191
      1.44883333	     -3.09998351	      2.22925517	     -3.85173548	      1.01453096	      0.95158653	      0.29745494	    -21.89791904	     -3.06901712	     -2.87488155	    -11.85188601	     11.26677043	      0.57748648	     17.16857441	     29.07286213	      1.51447721	      3.63147650	     -2.89167615	     -6.97464429	     -8.43970999	      5.03178460	     -8.46377326	      0.95676503	     10.58938496
